# xmcd
#
# Track frame offsets: 
#        150
#        17616
#        30393
#        44252
#        61059
#        75074
#        88915
#        102872
#        118181
#        132315
#        147114
#        158122
#        175449
#        189781
#
# Disc length: 2746 seconds
#
# Revision: 0
# Processed by: cddbd v1.5.2PL0 Copyright (c) Steve Scherf et al.
# Submitted via: ExactAudioCopy v0.99pb5
#
DISCID=a60ab80e
DTITLE=DIEGO TORRES e TIAGO - AO VIVO
DYEAR=2011
DGENRE=SERTANEJO
TTITLE0=ME BEIJA
TTITLE1=ESTRELA VEM
TTITLE2=FORÇA ESTRANHA
TTITLE3=METADE DE MIM
TTITLE4=SONHO NA PRAIA
TTITLE5=MEU AR
TTITLE6=ILUSÃO
TTITLE7=SEM RADAR
TTITLE8=SERÁ
TTITLE9=TEMPESTADE
TTITLE10=PRIMAVERA
TTITLE11=MENINA SEREIA
TTITLE12=VEM (FAIXA BÔNUS)
TTITLE13=UM SÓ CORAÇÃO (FAIXA BÔNUS)
EXTD=
EXTT0=
EXTT1=
EXTT2=
EXTT3=
EXTT4=
EXTT5=
EXTT6=
EXTT7=
EXTT8=
EXTT9=
EXTT10=
EXTT11=
EXTT12=
EXTT13=
PLAYORDER=
